<svg width="193" height="21" viewBox="0 0 193 21" fill="none" xmlns="http://www.w3.org/2000/svg">
<g id="Clip path group">
<mask id="mask0_303_4271" style="mask-type:luminance" maskUnits="userSpaceOnUse" x="0" y="0" width="193" height="21">
<g id="clip0_24_37">
<path id="Vector" d="M193 0.990417H0.566895V20.219H193V0.990417Z" fill="white"/>
</g>
</mask>
<g mask="url(#mask0_303_4271)">
<g id="Group">
<path id="Vector_2" d="M109.999 9.75114V18.5118H111.311H112.624V9.75114V0.990494H111.311H109.999V9.75114Z" fill="white"/>
<path id="Vector_3" d="M142.312 2.56286V4.04547H143.625H144.937V2.56286V1.08031H143.625H142.312V2.56286Z" fill="white"/>
<path id="Vector_4" d="M38.6737 2.03271C37.5058 2.21241 36.6734 2.67967 36.2114 3.41646C36.0125 3.73994 30.3641 17.7571 30.1926 18.3591C30.1474 18.5028 30.2646 18.5118 31.7219 18.5118H33.2969L34.6364 15.1154C38.0311 6.56132 38.5285 5.3483 38.728 5.15063C39.0082 4.87212 39.5153 4.87212 39.7868 5.14165C39.9046 5.25847 40.1853 5.85149 40.4203 6.4715C40.6558 7.09146 41.7781 10.0387 42.9186 13.0308L44.9824 18.4669L46.5935 18.4938C47.8609 18.5118 48.1868 18.4938 48.1594 18.404C45.8063 12.2041 42.4933 3.65011 42.3395 3.41646C42.0679 2.99417 41.5339 2.52691 41.0629 2.32924C40.4837 2.06869 39.3524 1.9339 38.6737 2.03271Z" fill="white"/>
<path id="Vector_5" d="M0.566895 10.4251V18.5119H2.01502H3.46314V10.4251V2.33827H2.01502H0.566895V10.4251Z" fill="white"/>
<path id="Vector_6" d="M7.99806 2.45505C7.8803 2.50895 7.69048 2.67967 7.591 2.81446C7.40064 3.06608 7.40064 3.11998 7.37376 10.2364C7.34633 17.9997 7.34633 17.9188 7.83513 18.2782C8.08841 18.4669 8.17014 18.4669 12.0892 18.4669C15.9453 18.4669 16.1173 18.4579 16.8594 18.2692C20.2267 17.3797 21.8378 14.8548 21.8378 10.4251C21.8378 5.81556 20.0272 3.15591 16.4158 2.482C15.4296 2.29331 8.35136 2.27534 7.99806 2.45505ZM16.0899 5.34835C18.0994 5.86951 18.9501 7.37901 18.9415 10.4071C18.9324 11.9615 18.7694 12.8781 18.3527 13.7226C17.8639 14.7021 17.1584 15.2412 15.9996 15.5018C15.5382 15.6096 14.8865 15.6365 12.8587 15.6186L10.2974 15.5916L10.27 10.5149C10.2609 7.72046 10.27 5.38429 10.2974 5.32135C10.3603 5.15069 15.3753 5.16865 16.0899 5.34835Z" fill="white"/>
<path id="Vector_7" d="M49.4629 8.24165C49.499 13.4891 49.5172 14.2169 49.6528 14.6931C50.2324 16.7148 51.5445 17.9099 53.6358 18.3411C54.3778 18.4939 54.9027 18.5119 58.2517 18.5119H62.026V17.0832V15.6456L58.2065 15.6186L54.3778 15.5917L53.8164 15.34C53.1561 15.0346 52.8754 14.756 52.5947 14.154L52.3866 13.7047L52.3592 8.01703L52.3323 2.33827H50.8842H49.436L49.4629 8.24165Z" fill="white"/>
<path id="Vector_8" d="M79.8122 2.42815C77.4682 2.91332 76.2368 4.46779 76.2368 6.96575C76.2368 9.38276 77.3322 10.8294 79.6316 11.4674C80.0655 11.5932 80.7807 11.6291 83.2973 11.674C86.2027 11.728 86.4468 11.7459 86.827 11.9167C87.3341 12.1503 87.7955 12.6624 87.8772 13.0757C87.9041 13.2554 87.9132 13.6329 87.8955 13.9204C87.8412 14.6482 87.5153 15.1244 86.8904 15.4209L86.4199 15.6366H81.4685H76.5084V17.0742V18.5119H81.4776C85.4966 18.5119 86.5829 18.4849 87.1529 18.3771C89.0177 18.0267 90.2669 16.8765 90.6831 15.1334C90.7917 14.6661 90.8186 14.2528 90.7826 13.4801C90.6922 11.5393 90.0131 10.3532 88.5741 9.6254C87.5061 9.09527 87.2523 9.05934 83.7947 8.9964L80.6269 8.94251L80.0838 8.67292C79.396 8.33148 79.1336 7.88224 79.1336 7.07354C79.1336 6.3637 79.396 5.82459 79.8848 5.50111L80.2559 5.25852L84.9175 5.21361L89.5877 5.16864L89.6151 3.74897L89.642 2.33827L84.9083 2.34726C82.3014 2.35624 80.0112 2.39217 79.8122 2.42815Z" fill="white"/>
<path id="Vector_9" d="M133.714 4.31508V5.84261H132.808H131.894L131.921 7.0736L131.948 8.31357L132.836 8.34052L133.714 8.36746V11.8448C133.714 15.5378 133.768 16.1218 134.166 16.9395C134.438 17.4876 135.026 18.0357 135.614 18.2603C136.049 18.431 136.329 18.458 137.949 18.4939L139.778 18.5299V17.3618V16.1937L138.538 16.1577C137.063 16.1218 136.782 16.023 136.511 15.4299C136.357 15.0795 136.338 14.801 136.338 11.71V8.35848L138.086 8.34052L139.823 8.31357L139.85 7.0736L139.877 5.84261H138.112H136.338L136.32 4.33305L136.293 2.83248L135.008 2.80553L133.714 2.77858V4.31508Z" fill="white"/>
<path id="Vector_10" d="M97.4622 5.93245C95.4258 6.33677 94.0229 7.70255 93.4798 9.79614C93.1539 11.072 93.1539 13.2914 93.4798 14.5673C94.0046 16.598 95.3898 17.9818 97.3084 18.3771C98.1683 18.5658 102.015 18.5568 102.884 18.3771C104.179 18.1076 105.292 17.3528 105.989 16.2925C107.003 14.7291 107.292 11.6831 106.641 9.55355C106.034 7.60374 104.74 6.36377 102.884 5.97736C102.196 5.83364 98.1414 5.79765 97.4622 5.93245ZM102.613 8.54718C103.319 8.80779 103.871 9.42775 104.133 10.2814C104.423 11.2068 104.432 13.1477 104.143 14.0732C103.898 14.8369 103.418 15.421 102.785 15.7355C102.359 15.9421 102.287 15.9511 100.133 15.9511C97.9967 15.9511 97.8967 15.9421 97.4445 15.7355C96.8379 15.4659 96.4126 14.9987 96.1502 14.3248C95.9781 13.8844 95.9329 13.57 95.8963 12.5097C95.8334 10.5419 96.0958 9.62542 96.8922 8.95151C97.4988 8.43036 97.8338 8.36748 100.105 8.36748C101.925 8.3585 102.169 8.37646 102.613 8.54718Z" fill="white"/>
<path id="Vector_11" d="M116.181 10.1735C116.217 14.8818 116.217 14.8908 116.751 15.987C117.058 16.607 117.945 17.5145 118.561 17.82C118.805 17.9458 119.312 18.1435 119.683 18.2603C120.335 18.458 120.48 18.467 122.987 18.467C125.603 18.467 125.612 18.467 126.336 18.2244C128.092 17.6314 129.223 16.3734 129.558 14.6122C129.604 14.3697 129.64 12.303 129.64 10.0118V5.84256H128.373H127.114L127.087 9.9938L127.06 14.154L126.834 14.5943C126.571 15.1064 126.236 15.403 125.567 15.7175C125.078 15.9511 125.042 15.9511 122.942 15.9511C120.959 15.9511 120.787 15.9421 120.398 15.7624C119.828 15.4929 119.285 14.9897 119.032 14.4865C118.824 14.0641 118.824 14.0372 118.796 9.94889L118.769 5.84256H117.457H116.144L116.181 10.1735Z" fill="white"/>
<path id="Vector_12" d="M142.312 12.1772V18.5119H143.579H144.846V12.1772V5.84256H143.579H142.312V12.1772Z" fill="white"/>
<path id="Vector_13" d="M152.006 5.98633C150.042 6.40862 148.775 7.68458 148.178 9.84104C148.015 10.452 147.978 10.7935 147.978 12.1772C147.978 13.561 148.015 13.9024 148.178 14.5134C148.766 16.6519 149.915 17.838 151.879 18.3411C152.468 18.4849 152.884 18.5119 154.803 18.5119C157.265 18.5119 157.871 18.422 158.94 17.9099C160.062 17.3708 161.003 16.1038 161.428 14.5583C161.61 13.8934 161.637 13.5879 161.637 12.1772C161.637 10.3173 161.528 9.77816 160.949 8.55616C160.288 7.19037 159.139 6.30981 157.564 5.97735C156.704 5.79764 152.848 5.79765 152.006 5.98633ZM157.6 8.67293C158.161 8.97845 158.505 9.40073 158.804 10.1466C158.985 10.5958 159.003 10.8024 159.003 12.1772C159.003 13.552 158.985 13.7586 158.804 14.2079C158.487 14.9986 158.143 15.403 157.545 15.6905L157.021 15.9511H154.794H152.576L152.033 15.6815C151.047 15.1783 150.648 14.3067 150.576 12.4917C150.522 11.1709 150.675 10.2993 151.074 9.58049C151.345 9.10425 151.961 8.61005 152.486 8.45729C152.64 8.4034 153.744 8.37645 154.939 8.38543L157.111 8.4034L157.6 8.67293Z" fill="white"/>
<path id="Vector_14" d="M165.62 5.96833C165.248 6.13008 164.959 6.47152 164.85 6.83992C164.796 7.01962 164.759 9.4007 164.759 12.8241V18.5118H166.027H167.294V13.5789C167.294 10.8653 167.321 8.58307 167.348 8.50217C167.394 8.37642 167.728 8.35845 170.109 8.35845C171.756 8.35845 172.996 8.39438 173.286 8.45726C174.245 8.66391 174.906 9.14015 175.332 9.93089L175.576 10.3801L175.603 14.4415L175.63 18.5118H176.943H178.255L178.228 14.2618C178.192 10.461 178.174 9.96682 178.029 9.52651C177.422 7.71149 176.273 6.66021 174.264 6.09415C173.63 5.91444 173.322 5.90546 169.738 5.86947C166.615 5.85151 165.836 5.86947 165.62 5.96833Z" fill="white"/>
<path id="Vector_15" d="M184.084 5.93244C183.279 6.09418 182.645 6.40868 182.174 6.8669C181.55 7.49589 181.315 8.11585 181.252 9.31989C181.152 11.3506 181.985 12.5546 183.813 13.0398C184.438 13.2015 184.89 13.2285 187.026 13.2735C189.932 13.3363 190.067 13.3633 190.33 14.0641C190.511 14.5134 190.466 15.1603 190.249 15.4748C189.904 15.9601 190.022 15.9511 185.533 15.996L181.369 16.041L181.342 17.2809L181.315 18.5209L185.732 18.4939C190.031 18.458 190.167 18.458 190.692 18.2603C191.869 17.829 192.593 16.9934 192.873 15.7444C193.045 14.9717 193.009 13.9833 192.783 13.2375C192.602 12.6624 191.959 11.9346 191.362 11.6291C190.466 11.1889 190.05 11.1259 187.207 11.063C185.279 11.0271 184.483 10.9732 184.329 10.8923C183.795 10.5958 183.596 9.64337 183.931 8.98743C184.238 8.35849 184.257 8.35849 188.592 8.35849H192.457V7.10055V5.84256L188.456 5.85154C186.248 5.86053 184.283 5.89651 184.084 5.93244Z" fill="white"/>
<path id="Vector_16" d="M64.2612 15.2502C64.2251 15.2772 64.1982 16.0319 64.1982 16.9125V18.5119H65.6012H67.0041V16.8496V15.1873H65.6641C64.922 15.1873 64.2886 15.2143 64.2612 15.2502Z" fill="white"/>
</g>
</g>
</g>
</svg>
